<svg xmlns="http://www.w3.org/2000/svg" xmlns:xlink="http://www.w3.org/1999/xlink" viewBox="0 0 66 82.5" version="1.1" x="0px" y="0px"><title>bank transfer, currency, money, transaction, connection</title><desc>Created with Sketch.</desc><g stroke="none" stroke-width="1" fill="none" fill-rule="evenodd"><g transform="translate(-537.000000, -417.000000)" fill="#000000" fill-rule="nonzero"><path d="M573,446 L573,431 L570,431 C569.447715,431 569,430.552285 569,430 L569,426 C569,425.621228 569.214002,425.274965 569.552786,425.105573 L585.552786,417.105573 C585.834314,416.964809 586.165686,416.964809 586.447214,417.105573 L602.447214,425.105573 C602.785998,425.274965 603,425.621228 603,426 L603,430 C603,430.552285 602.552285,431 602,431 L599,431 L599,446 L602,446 C602.552285,446 603,446.447715 603,447 C603,447.552285 602.552285,448 602,448 L570,448 C569.447715,448 569,447.552285 569,447 C569,446.447715 569.447715,446 570,446 L573,446 Z M571,429 L601,429 L601,426.618034 L586,419.118034 L571,426.618034 L571,429 Z M591,446 L597,446 L597,431 L591,431 L591,446 Z M589,446 L589,431 L583,431 L583,446 L589,446 Z M581,446 L581,431 L575,431 L575,446 L581,446 Z M567,466 L567,481 L570,481 C570.552285,481 571,481.447715 571,482 C571,482.552285 570.552285,483 570,483 L538,483 C537.447715,483 537,482.552285 537,482 C537,481.447715 537.447715,481 538,481 L541,481 L541,466 L538,466 C537.447715,466 537,465.552285 537,465 L537,461 C537,460.621228 537.214002,460.274965 537.552786,460.105573 L553.552786,452.105573 C553.834314,451.964809 554.165686,451.964809 554.447214,452.105573 L570.447214,460.105573 C570.785998,460.274965 571,460.621228 571,461 L571,465 C571,465.552285 570.552285,466 570,466 L567,466 Z M539,461.618034 L539,464 L569,464 L569,461.618034 L554,454.118034 L539,461.618034 Z M565,466 L559,466 L559,481 L565,481 L565,466 Z M557,466 L551,466 L551,481 L557,481 L557,466 Z M549,466 L543,466 L543,481 L549,481 L549,466 Z M546,438.585786 L546,435 C546,429.477153 550.477153,425 556,425 L560,425 C560.552285,425 561,425.447715 561,426 C561,426.552285 560.552285,427 560,427 L556,427 C551.581722,427 548,430.581722 548,435 L548,438.585786 L551.292893,435.292893 C551.683418,434.902369 552.316582,434.902369 552.707107,435.292893 C553.097631,435.683418 553.097631,436.316582 552.707107,436.707107 L547.707107,441.707107 C547.316582,442.097631 546.683418,442.097631 546.292893,441.707107 L541.292893,436.707107 C540.902369,436.316582 540.902369,435.683418 541.292893,435.292893 C541.683418,434.902369 542.316582,434.902369 542.707107,435.292893 L546,438.585786 Z M594,461.414214 L594,465 C594,470.522847 589.522847,475 584,475 L580,475 C579.447715,475 579,474.552285 579,474 C579,473.447715 579.447715,473 580,473 L584,473 C588.418278,473 592,469.418278 592,465 L592,461.414214 L588.707107,464.707107 C588.316582,465.097631 587.683418,465.097631 587.292893,464.707107 C586.902369,464.316582 586.902369,463.683418 587.292893,463.292893 L592.292893,458.292893 C592.683418,457.902369 593.316582,457.902369 593.707107,458.292893 L598.707107,463.292893 C599.097631,463.683418 599.097631,464.316582 598.707107,464.707107 C598.316582,465.097631 597.683418,465.097631 597.292893,464.707107 L594,461.414214 Z"/></g></g><text x="0" y="81" fill="#000000" font-size="5px" font-weight="bold" font-family="'Helvetica Neue', Helvetica, Arial-Unicode, Arial, Sans-serif">Created by Andrejs Kirma</text><text x="0" y="86" fill="#000000" font-size="5px" font-weight="bold" font-family="'Helvetica Neue', Helvetica, Arial-Unicode, Arial, Sans-serif">from the Noun Project</text></svg>