<!DOCTYPE svg PUBLIC "-//W3C//DTD SVG 1.1//EN" "http://www.w3.org/Graphics/SVG/1.1/DTD/svg11.dtd">
<!-- Uploaded to: SVG Repo, www.svgrepo.com, Transformed by: SVG Repo Mixer Tools -->
<svg version="1.1" id="Capa_1" xmlns="http://www.w3.org/2000/svg" xmlns:xlink="http://www.w3.org/1999/xlink" width="800px" height="800px" viewBox="0 0 363.02 363.02" xml:space="preserve" fill="#ffffff" stroke="#ffffff" stroke-width="16.336125">
<g id="SVGRepo_bgCarrier" stroke-width="0"/>
<g id="SVGRepo_tracerCarrier" stroke-linecap="round" stroke-linejoin="round" stroke="#ffffffCCCCCC" stroke-width="0.72605"/>
<g id="SVGRepo_iconCarrier"> <g> <path style="fill:#ffffff;" d="M181.512,363.024c100.083,0,181.513-81.43,181.513-181.512C363.025,81.424,281.595,0,181.512,0 C81.422,0,0,81.424,0,181.513C0,281.595,81.422,363.024,181.512,363.024z M181.512,11.71c93.633,0,169.803,76.176,169.803,169.803 c0,93.632-76.17,169.802-169.803,169.802c-91.656,0-166.545-73.014-169.656-163.936l189.944,0.366l-32.959,32.959l8.28,8.279 l47.065-47.06l-47.885-47.885l-8.28,8.28l33.722,33.725l-189.892-0.375C14.956,84.744,89.844,11.71,181.512,11.71z"/> </g> </g>
</svg>